<svg width="18" height="18" viewBox="0 0 18 18" fill="none" xmlns="http://www.w3.org/2000/svg">
<path d="M2.46683 5.73337H2.70016C3.5985 5.73337 4.3335 6.46837 4.3335 7.36671V15.5334C4.3335 16.4317 3.5985 17.1667 2.70016 17.1667H2.46683C1.5685 17.1667 0.833496 16.4317 0.833496 15.5334V7.36671C0.833496 6.46837 1.5685 5.73337 2.46683 5.73337ZM9.00016 0.833374C9.8985 0.833374 10.6335 1.56837 10.6335 2.46671V15.5334C10.6335 16.4317 9.8985 17.1667 9.00016 17.1667C8.10183 17.1667 7.36683 16.4317 7.36683 15.5334V2.46671C7.36683 1.56837 8.10183 0.833374 9.00016 0.833374ZM15.5335 10.1667C16.4318 10.1667 17.1668 10.9017 17.1668 11.8V15.5334C17.1668 16.4317 16.4318 17.1667 15.5335 17.1667C14.6352 17.1667 13.9002 16.4317 13.9002 15.5334V11.8C13.9002 10.9017 14.6352 10.1667 15.5335 10.1667Z" fill="#A3AED0"/>
</svg>
