<svg width="16" height="19" viewBox="0 0 16 19" fill="none" xmlns="http://www.w3.org/2000/svg">
    <path d="M11.5797 0.509008C11.5414 0.466258 10.1633 0.525883 8.96404 1.82751C7.76479 3.12801 7.94929 4.61976 7.97629 4.65801C8.00329 4.69626 9.68629 4.75588 10.7607 3.24276C11.835 1.72963 11.6179 0.552883 11.5797 0.509008V0.509008ZM15.3079 13.7086C15.2539 13.6006 12.6923 12.3204 12.9308 9.85888C13.1693 7.39626 14.8152 6.72126 14.841 6.64813C14.8669 6.57501 14.1694 5.75938 13.4303 5.34651C12.8876 5.05542 12.287 4.88864 11.6719 4.85826C11.5504 4.85488 11.1285 4.75138 10.2612 4.98876C9.68967 5.14513 8.40154 5.65138 8.04717 5.67163C7.69167 5.69188 6.63417 5.08438 5.49679 4.92351C4.76892 4.78288 3.99717 5.07088 3.44479 5.29251C2.89354 5.51301 1.84504 6.14076 1.11154 7.80913C0.378042 9.47638 0.761667 12.1179 1.03617 12.9391C1.31067 13.7593 1.73929 15.1036 2.46829 16.0846C3.11629 17.1916 3.97579 17.96 4.33467 18.221C4.69354 18.482 5.70604 18.6553 6.40804 18.2964C6.97279 17.9499 7.99204 17.7508 8.39479 17.7654C8.79642 17.78 9.58842 17.9386 10.3995 18.3718C11.0419 18.5934 11.6494 18.5011 12.258 18.2536C12.8667 18.005 13.7475 17.0623 14.7758 15.1509C15.1662 14.2621 15.3439 13.7818 15.3079 13.7086V13.7086Z" fill="black" />
</svg>
    