<svg width="40" height="38" viewBox="0 0 40 38" fill="none" xmlns="http://www.w3.org/2000/svg">
<path fill-rule="evenodd" clip-rule="evenodd" d="M30.8333 7.16663C30.8333 3.57678 27.9233 0.666626 24.3333 0.666626H15.6667C12.0768 0.666626 9.16667 3.57678 9.16667 7.16663H7C3.41016 7.16663 0.5 10.0768 0.5 13.6666V31C0.5 34.5899 3.41016 37.5 7 37.5H33C36.59 37.5 39.5 34.5899 39.5 31V13.6666C39.5 10.0768 36.59 7.16663 33 7.16663H30.8333ZM24.3333 4.99996H15.6667C14.4701 4.99996 13.5 5.97002 13.5 7.16663H26.5C26.5 5.97002 25.53 4.99996 24.3333 4.99996ZM7 11.5H33C34.1967 11.5 35.1667 12.47 35.1667 13.6666V31C35.1667 32.1966 34.1967 33.1666 33 33.1666H7C5.80339 33.1666 4.83333 32.1966 4.83333 31V13.6666C4.83333 12.47 5.80339 11.5 7 11.5Z" fill="currentColor"/>
</svg>

    