<svg width="24" height="22" viewBox="0 0 24 22" fill="none" xmlns="http://www.w3.org/2000/svg">
    <path d="M23.25 4.99977V5.74977C23.25 5.84922 23.2105 5.94461 23.1402 6.01493C23.0698 6.08526 22.9745 6.12477 22.875 6.12477H21.75V6.68727C21.75 6.99791 21.4981 7.24977 21.1875 7.24977H2.8125C2.50186 7.24977 2.25 6.99791 2.25 6.68727V6.12477H1.125C1.02554 6.12477 0.930161 6.08526 0.859835 6.01493C0.789509 5.94461 0.75 5.84922 0.75 5.74977V4.99977C0.750001 4.92558 0.772007 4.85306 0.813234 4.79138C0.854462 4.7297 0.913058 4.68164 0.981609 4.65327L11.8566 0.528269C11.9484 0.490252 12.0516 0.490252 12.1434 0.528269L23.0184 4.65327C23.0869 4.68164 23.1455 4.7297 23.1868 4.79138C23.228 4.85306 23.25 4.92558 23.25 4.99977ZM22.125 19.2498H1.875C1.25367 19.2498 0.75 19.7534 0.75 20.3748V21.1248C0.75 21.2242 0.789509 21.3196 0.859835 21.3899C0.930161 21.4603 1.02554 21.4998 1.125 21.4998H22.875C22.9745 21.4998 23.0698 21.4603 23.1402 21.3899C23.2105 21.3196 23.25 21.2242 23.25 21.1248V20.3748C23.25 19.7534 22.7463 19.2498 22.125 19.2498ZM4.5 7.99977V16.9998H2.8125C2.50186 16.9998 2.25 17.2516 2.25 17.5623V18.4998H21.75V17.5623C21.75 17.2516 21.4981 16.9998 21.1875 16.9998H19.5V7.99977H16.5V16.9998H13.5V7.99977H10.5V16.9998H7.5V7.99977H4.5Z" fill="currentColor" />
</svg>