<svg width="14" height="16" viewBox="0 0 14 16" fill="none" xmlns="http://www.w3.org/2000/svg">
    <path d="M2.6003 1.40007H11.4003C12.1336 1.40007 12.7336 2.00007 12.7336 2.7334V4.20007C12.7336 4.7334 12.4003 5.40007 12.067 5.7334L9.20031 8.26674C8.80031 8.60007 8.53364 9.26674 8.53364 9.80007V12.6667C8.53364 13.0667 8.26697 13.6001 7.93364 13.8001L7.00031 14.4001C6.13364 14.9334 4.93363 14.3334 4.93363 13.2667V9.7334C4.93363 9.26674 4.66697 8.66674 4.4003 8.3334L1.86697 5.66674C1.53363 5.3334 1.26697 4.7334 1.26697 4.3334V2.80007C1.26697 2.00007 1.86697 1.40007 2.6003 1.40007Z" stroke="currentColor" stroke-width="1.5" stroke-miterlimit="10" stroke-linecap="round" stroke-linejoin="round" />
</svg>
    