<svg width="44" height="43" viewBox="0 0 44 43" fill="none" xmlns="http://www.w3.org/2000/svg">
    <path d="M26.875 26.4166L24.4037 28.0642C22.9481 29.0346 21.0519 29.0346 19.5963 28.0642L17.125 26.4166M2.5 36.1666V16.8192C2.5 15.3702 3.2241 14.0172 4.42963 13.2135L19.5963 3.10242C21.0519 2.13204 22.9481 2.13204 24.4037 3.10242L39.5704 13.2135C40.7759 14.0172 41.5 15.3702 41.5 16.8192V36.1666H2.5ZM2.5 36.1666C2.5 38.5599 4.4401 40.5 6.83333 40.5H37.1667C39.56 40.5 41.5 38.5599 41.5 36.1666H2.5ZM2.5 36.1666L17.125 26.4166L2.5 36.1666ZM41.5 36.1666L26.875 26.4166L41.5 36.1666ZM2.5 16.6666L17.125 26.4166L2.5 16.6666ZM41.5 16.6666L26.875 26.4166L41.5 16.6666Z" stroke="currentColor" stroke-width="4" stroke-linecap="round" stroke-linejoin="round" />
</svg>
    