<svg width="20" height="19" viewBox="0 0 20 19" fill="none" xmlns="http://www.w3.org/2000/svg">
    <path d="M13.6538 8.03846C13.6538 6.63021 13.1533 5.42558 12.1523 4.42458C11.1513 3.42358 9.94671 2.92308 8.53846 2.92308C7.13021 2.92308 5.92558 3.42358 4.92458 4.42458C3.92358 5.42558 3.42308 6.63021 3.42308 8.03846C3.42308 9.44671 3.92358 10.6513 4.92458 11.6523C5.92558 12.6533 7.13021 13.1538 8.53846 13.1538C9.94671 13.1538 11.1513 12.6533 12.1523 11.6523C13.1533 10.6513 13.6538 9.44671 13.6538 8.03846ZM19.5 17.5385C19.5 17.9343 19.3554 18.2768 19.0661 18.5661C18.7768 18.8554 18.4343 19 18.0385 19C17.6274 19 17.2849 18.8554 17.0108 18.5661L13.0944 14.6611C11.7318 15.605 10.2131 16.0769 8.53846 16.0769C7.44992 16.0769 6.40895 15.8657 5.41557 15.4432C4.42218 15.0207 3.56581 14.4498 2.84645 13.7305C2.1271 13.0111 1.55619 12.1547 1.13371 11.1614C0.711238 10.168 0.5 9.127 0.5 8.03846C0.5 6.94992 0.711238 5.90895 1.13371 4.91557C1.55619 3.92218 2.1271 3.06581 2.84645 2.34645C3.56581 1.6271 4.42218 1.05619 5.41557 0.633714C6.40895 0.211238 7.44992 0 8.53846 0C9.627 0 10.668 0.211238 11.6614 0.633714C12.6547 1.05619 13.5111 1.6271 14.2305 2.34645C14.9498 3.06581 15.5207 3.92218 15.9432 4.91557C16.3657 5.90895 16.5769 6.94992 16.5769 8.03846C16.5769 9.71314 16.105 11.2318 15.1611 12.5944L19.0775 16.5108C19.3592 16.7925 19.5 17.135 19.5 17.5385Z" fill="currentColor" />
</svg>
    