<svg width="21" height="21" viewBox="0 0 21 21" fill="none" xmlns="http://www.w3.org/2000/svg">
    <path d="M9.90044 0.861328L9.27618 2.28662C8.95364 2.30623 8.63212 2.347 8.31367 2.40844L7.35874 1.17534L6.3295 1.52529L6.32437 3.09414C5.88838 3.31825 5.47055 3.5892 5.07586 3.90543L3.62124 3.25049L2.87652 4.04262L3.6212 5.45508C3.38117 5.79739 3.1731 6.1553 2.99702 6.52534L1.39995 6.5689L1.07568 7.60577L2.36513 8.55561C2.3034 8.94034 2.27326 9.32909 2.27154 9.71816L0.839844 10.4436L0.989797 11.5203L2.56123 11.8279C2.65491 12.1553 2.7707 12.477 2.90986 12.7917L1.87426 14.0774L2.45229 14.9976L4.06215 14.6208C4.16346 14.7395 4.26875 14.8569 4.37871 14.9707C4.61016 15.21 4.85306 15.4303 5.10551 15.632L4.79277 17.2445L5.73358 17.7879L6.96274 16.7177C7.31572 16.8597 7.67785 16.9732 8.04584 17.0586L8.44705 18.6339L9.53007 18.7223L10.1812 17.2367C10.6311 17.2097 11.0796 17.1424 11.5206 17.0342L12.555 18.2327L13.5637 17.8289L13.5342 17.2214L11.1796 15.4359C10.4942 15.6092 9.78338 15.6556 9.08526 15.5769C7.78285 15.43 6.53121 14.8419 5.54897 13.8261C3.30386 11.504 3.36805 7.81032 5.68998 5.56529C6.81463 4.47784 8.26125 3.92618 9.70951 3.91055C11.2513 3.8939 12.7945 4.48461 13.9521 5.68189C15.8361 7.63063 16.0929 10.5621 14.7544 12.7815L16.0657 13.7761C16.2296 13.5185 16.3772 13.2532 16.5066 12.9814L18.0921 12.9378L18.4164 11.901L17.136 10.9576C17.198 10.5697 17.2287 10.1769 17.2295 9.78481L18.6522 9.06191L18.5023 7.98525L16.9322 7.67763C16.8012 7.22675 16.6269 6.78505 16.4093 6.36001L17.3449 5.06416L16.7194 4.17588L15.1788 4.6232C15.1595 4.60269 15.1407 4.5819 15.1211 4.56168C14.8751 4.30717 14.6154 4.074 14.3444 3.86179L14.6392 2.33908L13.6982 1.79566L12.5293 2.81343C12.1509 2.66113 11.7622 2.5426 11.368 2.45454L10.9848 0.949758L9.90044 0.861328ZM7.51514 7.15723C7.09087 7.16207 6.67034 7.26625 6.28467 7.45582L8.1394 8.86323C8.70033 9.28881 8.85942 10.0976 8.42897 10.6653C7.99838 11.2334 7.17159 11.3188 6.60254 10.8871L4.74913 9.48105C4.55935 10.4979 4.91873 11.5754 5.79888 12.2432C6.58823 12.8419 7.60127 12.954 8.47392 12.6406L8.66997 12.57L8.83527 12.6956L14.3802 16.9024L14.5455 17.028L14.5314 17.2356C14.4642 18.1605 14.8427 19.1063 15.6324 19.7055C16.5126 20.3732 17.6481 20.4286 18.5765 19.9721L16.7231 18.566C16.1541 18.1343 16.0143 17.3148 16.4451 16.7473C16.8757 16.1796 17.6976 16.1154 18.2586 16.5409L20.1121 17.947C20.3014 16.9305 19.9435 15.8525 19.0636 15.1848C18.2714 14.5836 17.2664 14.4645 16.3989 14.7733L16.2041 14.8426L16.0388 14.7169L10.4939 10.5103L10.3286 10.3847L10.3427 10.1784C10.4062 9.26014 10.0207 8.3247 9.22881 7.72378C8.71431 7.33347 8.11228 7.15046 7.51518 7.15727L7.51514 7.15723ZM9.3019 10.8589L16.0233 15.9589L15.5606 16.5703L8.83789 11.469L9.3019 10.8589Z" fill="currentColor" />
</svg>
    