<svg width="16" height="16" viewBox="0 0 16 16" fill="none" xmlns="http://www.w3.org/2000/svg">
    <path d="M9.55907 0.125C9.67816 0.125004 9.79417 0.162804 9.89041 0.232958C9.98664 0.303111 10.0581 0.401998 10.0946 0.515375L10.7133 2.438C10.9732 2.56512 11.2218 2.708 11.4592 2.86887L13.4347 2.44363C13.5512 2.41876 13.6725 2.4315 13.7813 2.48002C13.8901 2.52855 13.9806 2.61034 14.0399 2.71363L15.5992 5.4125C15.6587 5.51573 15.684 5.63519 15.6712 5.75368C15.6585 5.87216 15.6084 5.98354 15.5283 6.07175L14.1727 7.568C14.1924 7.85491 14.1924 8.14284 14.1727 8.42975L15.5283 9.92825C15.6084 10.0165 15.6585 10.1278 15.6712 10.2463C15.684 10.3648 15.6587 10.4843 15.5992 10.5875L14.0399 13.2875C13.9805 13.3906 13.8898 13.4721 13.7811 13.5205C13.6723 13.5688 13.551 13.5813 13.4347 13.5564L11.4592 13.1311C11.2229 13.2909 10.9732 13.4349 10.7144 13.562L10.0946 15.4846C10.0581 15.598 9.98664 15.6969 9.89041 15.767C9.79417 15.8372 9.67816 15.875 9.55907 15.875H6.44057C6.32148 15.875 6.20546 15.8372 6.10923 15.767C6.01299 15.6969 5.94151 15.598 5.90507 15.4846L5.28744 13.5631C5.02826 13.4364 4.77828 13.2917 4.53932 13.13L2.56494 13.5564C2.44846 13.5812 2.3271 13.5685 2.21833 13.52C2.10956 13.4715 2.019 13.3897 1.95969 13.2864L0.400442 10.5875C0.3409 10.4843 0.315681 10.3648 0.328419 10.2463C0.341157 10.1278 0.391194 10.0165 0.471317 9.92825L1.82694 8.42975C1.80731 8.14359 1.80731 7.85641 1.82694 7.57025L0.471317 6.07175C0.391194 5.98354 0.341157 5.87216 0.328419 5.75368C0.315681 5.63519 0.3409 5.51573 0.400442 5.4125L1.95969 2.7125C2.01916 2.60942 2.10979 2.52786 2.21855 2.47955C2.32731 2.43123 2.44859 2.41865 2.56494 2.44363L4.53932 2.87C4.77782 2.70913 5.02757 2.564 5.28744 2.43688L5.90619 0.515375C5.94251 0.402363 6.01366 0.303738 6.10944 0.233619C6.20523 0.163499 6.32074 0.125479 6.43944 0.125H9.55794H9.55907ZM9.14732 1.25H6.85232L6.21332 3.23787L5.78244 3.44825C5.57062 3.5519 5.36615 3.66993 5.17044 3.8015L4.77219 4.0715L2.72919 3.6305L1.58169 5.6195L2.98232 7.16975L2.94857 7.64675C2.9324 7.88197 2.9324 8.11803 2.94857 8.35325L2.98232 8.83025L1.57944 10.3805L2.72807 12.3695L4.77107 11.9296L5.16932 12.1985C5.36502 12.3301 5.5695 12.4481 5.78132 12.5517L6.21219 12.7621L6.85232 14.75H9.14957L9.79082 12.761L10.2206 12.5517C10.4322 12.4483 10.6363 12.3303 10.8314 12.1985L11.2286 11.9296L13.2727 12.3695L14.4202 10.3805L13.0184 8.83025L13.0522 8.35325C13.0684 8.11765 13.0684 7.88122 13.0522 7.64563L13.0184 7.16863L14.4213 5.6195L13.2727 3.6305L11.2286 4.06925L10.8314 3.8015C10.6363 3.66967 10.4322 3.55163 10.2206 3.44825L9.79082 3.239L9.14844 1.25H9.14732ZM7.99982 4.625C8.89492 4.625 9.75337 4.98058 10.3863 5.61351C11.0192 6.24645 11.3748 7.10489 11.3748 8C11.3748 8.89511 11.0192 9.75355 10.3863 10.3865C9.75337 11.0194 8.89492 11.375 7.99982 11.375C7.10471 11.375 6.24627 11.0194 5.61333 10.3865C4.9804 9.75355 4.62482 8.89511 4.62482 8C4.62482 7.10489 4.9804 6.24645 5.61333 5.61351C6.24627 4.98058 7.10471 4.625 7.99982 4.625ZM7.99982 5.75C7.40308 5.75 6.83078 5.98705 6.40883 6.40901C5.98687 6.83097 5.74982 7.40326 5.74982 8C5.74982 8.59674 5.98687 9.16903 6.40883 9.59099C6.83078 10.0129 7.40308 10.25 7.99982 10.25C8.59655 10.25 9.16885 10.0129 9.59081 9.59099C10.0128 9.16903 10.2498 8.59674 10.2498 8C10.2498 7.40326 10.0128 6.83097 9.59081 6.40901C9.16885 5.98705 8.59655 5.75 7.99982 5.75Z" fill="currentColor" />
</svg>
    